<svg xmlns="http://www.w3.org/2000/svg" xmlns:xlink="http://www.w3.org/1999/xlink" width="500" zoomAndPan="magnify" viewBox="0 0 375 374.999991" height="500" preserveAspectRatio="xMidYMid meet" version="1.0"><defs><g/><linearGradient x1="0" gradientTransform="matrix(0.75, 0, 0, 0.75, 0.0000045, 0)" y1="250" x2="499.999979" gradientUnits="userSpaceOnUse" y2="250" id="4c90feec76"><stop stop-opacity="1" stop-color="rgb(36.499023%, 87.799072%, 90.19928%)" offset="0"/><stop stop-opacity="1" stop-color="rgb(36.355591%, 87.568665%, 90.110779%)" offset="0.00390625"/><stop stop-opacity="1" stop-color="rgb(36.213684%, 87.339783%, 90.023804%)" offset="0.0078125"/><stop stop-opacity="1" stop-color="rgb(36.070251%, 87.109375%, 89.936829%)" offset="0.0117187"/><stop stop-opacity="1" stop-color="rgb(35.928345%, 86.880493%, 89.849854%)" offset="0.015625"/><stop stop-opacity="1" stop-color="rgb(35.786438%, 86.650085%, 89.761353%)" offset="0.0195312"/><stop stop-opacity="1" stop-color="rgb(35.644531%, 86.421204%, 89.674377%)" offset="0.0234375"/><stop stop-opacity="1" stop-color="rgb(35.501099%, 86.190796%, 89.585876%)" offset="0.0273438"/><stop stop-opacity="1" stop-color="rgb(35.359192%, 85.961914%, 89.498901%)" offset="0.03125"/><stop stop-opacity="1" stop-color="rgb(35.215759%, 85.731506%, 89.411926%)" offset="0.0351562"/><stop stop-opacity="1" stop-color="rgb(35.073853%, 85.502625%, 89.324951%)" offset="0.0390625"/><stop stop-opacity="1" stop-color="rgb(34.93042%, 85.272217%, 89.23645%)" offset="0.0429687"/><stop stop-opacity="1" stop-color="rgb(34.788513%, 85.043335%, 89.149475%)" offset="0.046875"/><stop stop-opacity="1" stop-color="rgb(34.645081%, 84.812927%, 89.060974%)" offset="0.0507812"/><stop stop-opacity="1" stop-color="rgb(34.503174%, 84.584045%, 88.973999%)" offset="0.0546875"/><stop stop-opacity="1" stop-color="rgb(34.359741%, 84.353638%, 88.885498%)" offset="0.0585938"/><stop stop-opacity="1" stop-color="rgb(34.217834%, 84.124756%, 88.798523%)" offset="0.0625"/><stop stop-opacity="1" stop-color="rgb(34.074402%, 83.894348%, 88.711548%)" offset="0.0664062"/><stop stop-opacity="1" stop-color="rgb(33.932495%, 83.665466%, 88.624573%)" offset="0.0703125"/><stop stop-opacity="1" stop-color="rgb(33.789062%, 83.435059%, 88.536072%)" offset="0.0742187"/><stop stop-opacity="1" stop-color="rgb(33.647156%, 83.206177%, 88.449097%)" offset="0.078125"/><stop stop-opacity="1" stop-color="rgb(33.503723%, 82.975769%, 88.360596%)" offset="0.0820312"/><stop stop-opacity="1" stop-color="rgb(33.361816%, 82.745361%, 88.273621%)" offset="0.0859375"/><stop stop-opacity="1" stop-color="rgb(33.21991%, 82.514954%, 88.186646%)" offset="0.0898437"/><stop stop-opacity="1" stop-color="rgb(33.078003%, 82.286072%, 88.09967%)" offset="0.09375"/><stop stop-opacity="1" stop-color="rgb(32.93457%, 82.055664%, 88.011169%)" offset="0.0976562"/><stop stop-opacity="1" stop-color="rgb(32.792664%, 81.826782%, 87.924194%)" offset="0.101562"/><stop stop-opacity="1" stop-color="rgb(32.649231%, 81.596375%, 87.835693%)" offset="0.105469"/><stop stop-opacity="1" stop-color="rgb(32.507324%, 81.367493%, 87.748718%)" offset="0.109375"/><stop stop-opacity="1" stop-color="rgb(32.363892%, 81.137085%, 87.661743%)" offset="0.113281"/><stop stop-opacity="1" stop-color="rgb(32.221985%, 80.908203%, 87.574768%)" offset="0.117188"/><stop stop-opacity="1" stop-color="rgb(32.078552%, 80.677795%, 87.486267%)" offset="0.121094"/><stop stop-opacity="1" stop-color="rgb(31.936646%, 80.448914%, 87.399292%)" offset="0.125"/><stop stop-opacity="1" stop-color="rgb(31.793213%, 80.218506%, 87.310791%)" offset="0.128906"/><stop stop-opacity="1" stop-color="rgb(31.651306%, 79.989624%, 87.223816%)" offset="0.132812"/><stop stop-opacity="1" stop-color="rgb(31.507874%, 79.759216%, 87.136841%)" offset="0.136719"/><stop stop-opacity="1" stop-color="rgb(31.365967%, 79.530334%, 87.049866%)" offset="0.140625"/><stop stop-opacity="1" stop-color="rgb(31.222534%, 79.299927%, 86.961365%)" offset="0.144531"/><stop stop-opacity="1" stop-color="rgb(31.080627%, 79.071045%, 86.87439%)" offset="0.148437"/><stop stop-opacity="1" stop-color="rgb(30.938721%, 78.840637%, 86.785889%)" offset="0.152344"/><stop stop-opacity="1" stop-color="rgb(30.796814%, 78.611755%, 86.698914%)" offset="0.15625"/><stop stop-opacity="1" stop-color="rgb(30.653381%, 78.381348%, 86.611938%)" offset="0.160156"/><stop stop-opacity="1" stop-color="rgb(30.511475%, 78.152466%, 86.524963%)" offset="0.164062"/><stop stop-opacity="1" stop-color="rgb(30.368042%, 77.922058%, 86.436462%)" offset="0.167969"/><stop stop-opacity="1" stop-color="rgb(30.226135%, 77.693176%, 86.349487%)" offset="0.171875"/><stop stop-opacity="1" stop-color="rgb(30.082703%, 77.462769%, 86.260986%)" offset="0.175781"/><stop stop-opacity="1" stop-color="rgb(29.940796%, 77.233887%, 86.174011%)" offset="0.179687"/><stop stop-opacity="1" stop-color="rgb(29.797363%, 77.003479%, 86.08551%)" offset="0.183594"/><stop stop-opacity="1" stop-color="rgb(29.655457%, 76.774597%, 85.998535%)" offset="0.1875"/><stop stop-opacity="1" stop-color="rgb(29.512024%, 76.544189%, 85.91156%)" offset="0.191406"/><stop stop-opacity="1" stop-color="rgb(29.370117%, 76.315308%, 85.824585%)" offset="0.195312"/><stop stop-opacity="1" stop-color="rgb(29.226685%, 76.0849%, 85.736084%)" offset="0.199219"/><stop stop-opacity="1" stop-color="rgb(29.084778%, 75.856018%, 85.649109%)" offset="0.203125"/><stop stop-opacity="1" stop-color="rgb(28.941345%, 75.62561%, 85.560608%)" offset="0.207031"/><stop stop-opacity="1" stop-color="rgb(28.799438%, 75.396729%, 85.473633%)" offset="0.210938"/><stop stop-opacity="1" stop-color="rgb(28.657532%, 75.166321%, 85.386658%)" offset="0.214844"/><stop stop-opacity="1" stop-color="rgb(28.515625%, 74.937439%, 85.299683%)" offset="0.21875"/><stop stop-opacity="1" stop-color="rgb(28.372192%, 74.707031%, 85.211182%)" offset="0.222656"/><stop stop-opacity="1" stop-color="rgb(28.230286%, 74.476624%, 85.124207%)" offset="0.226562"/><stop stop-opacity="1" stop-color="rgb(28.086853%, 74.246216%, 85.035706%)" offset="0.230469"/><stop stop-opacity="1" stop-color="rgb(27.944946%, 74.017334%, 84.94873%)" offset="0.234375"/><stop stop-opacity="1" stop-color="rgb(27.801514%, 73.786926%, 84.861755%)" offset="0.238281"/><stop stop-opacity="1" stop-color="rgb(27.659607%, 73.558044%, 84.77478%)" offset="0.242188"/><stop stop-opacity="1" stop-color="rgb(27.516174%, 73.327637%, 84.686279%)" offset="0.246094"/><stop stop-opacity="1" stop-color="rgb(27.374268%, 73.098755%, 84.599304%)" offset="0.25"/><stop stop-opacity="1" stop-color="rgb(27.230835%, 72.868347%, 84.510803%)" offset="0.253906"/><stop stop-opacity="1" stop-color="rgb(27.088928%, 72.639465%, 84.423828%)" offset="0.257812"/><stop stop-opacity="1" stop-color="rgb(26.945496%, 72.409058%, 84.336853%)" offset="0.261719"/><stop stop-opacity="1" stop-color="rgb(26.803589%, 72.180176%, 84.249878%)" offset="0.265625"/><stop stop-opacity="1" stop-color="rgb(26.660156%, 71.949768%, 84.161377%)" offset="0.269531"/><stop stop-opacity="1" stop-color="rgb(26.51825%, 71.720886%, 84.074402%)" offset="0.273437"/><stop stop-opacity="1" stop-color="rgb(26.374817%, 71.490479%, 83.985901%)" offset="0.277344"/><stop stop-opacity="1" stop-color="rgb(26.23291%, 71.261597%, 83.898926%)" offset="0.28125"/><stop stop-opacity="1" stop-color="rgb(26.091003%, 71.031189%, 83.811951%)" offset="0.285156"/><stop stop-opacity="1" stop-color="rgb(25.949097%, 70.802307%, 83.724976%)" offset="0.289062"/><stop stop-opacity="1" stop-color="rgb(25.805664%, 70.571899%, 83.636475%)" offset="0.292969"/><stop stop-opacity="1" stop-color="rgb(25.663757%, 70.343018%, 83.5495%)" offset="0.296875"/><stop stop-opacity="1" stop-color="rgb(25.520325%, 70.11261%, 83.460999%)" offset="0.300781"/><stop stop-opacity="1" stop-color="rgb(25.378418%, 69.883728%, 83.374023%)" offset="0.304687"/><stop stop-opacity="1" stop-color="rgb(25.234985%, 69.65332%, 83.285522%)" offset="0.308594"/><stop stop-opacity="1" stop-color="rgb(25.093079%, 69.424438%, 83.198547%)" offset="0.3125"/><stop stop-opacity="1" stop-color="rgb(24.949646%, 69.194031%, 83.111572%)" offset="0.316406"/><stop stop-opacity="1" stop-color="rgb(24.807739%, 68.965149%, 83.024597%)" offset="0.320312"/><stop stop-opacity="1" stop-color="rgb(24.664307%, 68.734741%, 82.936096%)" offset="0.324219"/><stop stop-opacity="1" stop-color="rgb(24.5224%, 68.505859%, 82.849121%)" offset="0.328125"/><stop stop-opacity="1" stop-color="rgb(24.378967%, 68.275452%, 82.76062%)" offset="0.332031"/><stop stop-opacity="1" stop-color="rgb(24.237061%, 68.04657%, 82.673645%)" offset="0.335937"/><stop stop-opacity="1" stop-color="rgb(24.093628%, 67.816162%, 82.58667%)" offset="0.339844"/><stop stop-opacity="1" stop-color="rgb(23.951721%, 67.58728%, 82.499695%)" offset="0.34375"/><stop stop-opacity="1" stop-color="rgb(23.809814%, 67.356873%, 82.411194%)" offset="0.347656"/><stop stop-opacity="1" stop-color="rgb(23.667908%, 67.127991%, 82.324219%)" offset="0.351562"/><stop stop-opacity="1" stop-color="rgb(23.524475%, 66.897583%, 82.235718%)" offset="0.355469"/><stop stop-opacity="1" stop-color="rgb(23.382568%, 66.668701%, 82.148743%)" offset="0.359375"/><stop stop-opacity="1" stop-color="rgb(23.239136%, 66.438293%, 82.061768%)" offset="0.363281"/><stop stop-opacity="1" stop-color="rgb(23.097229%, 66.207886%, 81.974792%)" offset="0.367187"/><stop stop-opacity="1" stop-color="rgb(22.953796%, 65.977478%, 81.886292%)" offset="0.371094"/><stop stop-opacity="1" stop-color="rgb(22.81189%, 65.748596%, 81.799316%)" offset="0.375"/><stop stop-opacity="1" stop-color="rgb(22.668457%, 65.518188%, 81.710815%)" offset="0.378906"/><stop stop-opacity="1" stop-color="rgb(22.52655%, 65.289307%, 81.62384%)" offset="0.382812"/><stop stop-opacity="1" stop-color="rgb(22.383118%, 65.058899%, 81.536865%)" offset="0.386719"/><stop stop-opacity="1" stop-color="rgb(22.241211%, 64.830017%, 81.44989%)" offset="0.390625"/><stop stop-opacity="1" stop-color="rgb(22.097778%, 64.599609%, 81.361389%)" offset="0.394531"/><stop stop-opacity="1" stop-color="rgb(21.955872%, 64.370728%, 81.274414%)" offset="0.398438"/><stop stop-opacity="1" stop-color="rgb(21.812439%, 64.14032%, 81.185913%)" offset="0.402344"/><stop stop-opacity="1" stop-color="rgb(21.670532%, 63.911438%, 81.098938%)" offset="0.40625"/><stop stop-opacity="1" stop-color="rgb(21.528625%, 63.68103%, 81.011963%)" offset="0.410156"/><stop stop-opacity="1" stop-color="rgb(21.386719%, 63.452148%, 80.924988%)" offset="0.414062"/><stop stop-opacity="1" stop-color="rgb(21.243286%, 63.221741%, 80.836487%)" offset="0.417969"/><stop stop-opacity="1" stop-color="rgb(21.101379%, 62.992859%, 80.749512%)" offset="0.421875"/><stop stop-opacity="1" stop-color="rgb(20.957947%, 62.762451%, 80.661011%)" offset="0.425781"/><stop stop-opacity="1" stop-color="rgb(20.81604%, 62.533569%, 80.574036%)" offset="0.429688"/><stop stop-opacity="1" stop-color="rgb(20.672607%, 62.303162%, 80.485535%)" offset="0.433594"/><stop stop-opacity="1" stop-color="rgb(20.530701%, 62.07428%, 80.39856%)" offset="0.4375"/><stop stop-opacity="1" stop-color="rgb(20.387268%, 61.843872%, 80.311584%)" offset="0.441406"/><stop stop-opacity="1" stop-color="rgb(20.245361%, 61.61499%, 80.224609%)" offset="0.445312"/><stop stop-opacity="1" stop-color="rgb(20.101929%, 61.384583%, 80.136108%)" offset="0.449219"/><stop stop-opacity="1" stop-color="rgb(19.960022%, 61.155701%, 80.049133%)" offset="0.453125"/><stop stop-opacity="1" stop-color="rgb(19.816589%, 60.925293%, 79.960632%)" offset="0.457031"/><stop stop-opacity="1" stop-color="rgb(19.674683%, 60.696411%, 79.873657%)" offset="0.460938"/><stop stop-opacity="1" stop-color="rgb(19.53125%, 60.466003%, 79.786682%)" offset="0.464844"/><stop stop-opacity="1" stop-color="rgb(19.389343%, 60.237122%, 79.699707%)" offset="0.46875"/><stop stop-opacity="1" stop-color="rgb(19.245911%, 60.006714%, 79.611206%)" offset="0.472656"/><stop stop-opacity="1" stop-color="rgb(19.104004%, 59.777832%, 79.524231%)" offset="0.476562"/><stop stop-opacity="1" stop-color="rgb(18.962097%, 59.547424%, 79.43573%)" offset="0.480469"/><stop stop-opacity="1" stop-color="rgb(18.82019%, 59.318542%, 79.348755%)" offset="0.484375"/><stop stop-opacity="1" stop-color="rgb(18.676758%, 59.088135%, 79.26178%)" offset="0.488281"/><stop stop-opacity="1" stop-color="rgb(18.534851%, 58.859253%, 79.174805%)" offset="0.492188"/><stop stop-opacity="1" stop-color="rgb(18.391418%, 58.628845%, 79.086304%)" offset="0.496094"/><stop stop-opacity="1" stop-color="rgb(18.249512%, 58.399963%, 78.999329%)" offset="0.5"/><stop stop-opacity="1" stop-color="rgb(18.106079%, 58.169556%, 78.910828%)" offset="0.503906"/><stop stop-opacity="1" stop-color="rgb(17.964172%, 57.939148%, 78.823853%)" offset="0.507812"/><stop stop-opacity="1" stop-color="rgb(17.82074%, 57.70874%, 78.736877%)" offset="0.511719"/><stop stop-opacity="1" stop-color="rgb(17.678833%, 57.479858%, 78.649902%)" offset="0.515625"/><stop stop-opacity="1" stop-color="rgb(17.5354%, 57.249451%, 78.561401%)" offset="0.519531"/><stop stop-opacity="1" stop-color="rgb(17.393494%, 57.020569%, 78.474426%)" offset="0.523437"/><stop stop-opacity="1" stop-color="rgb(17.250061%, 56.790161%, 78.385925%)" offset="0.527344"/><stop stop-opacity="1" stop-color="rgb(17.108154%, 56.561279%, 78.29895%)" offset="0.53125"/><stop stop-opacity="1" stop-color="rgb(16.964722%, 56.330872%, 78.211975%)" offset="0.535156"/><stop stop-opacity="1" stop-color="rgb(16.822815%, 56.10199%, 78.125%)" offset="0.539062"/><stop stop-opacity="1" stop-color="rgb(16.680908%, 55.871582%, 78.036499%)" offset="0.542969"/><stop stop-opacity="1" stop-color="rgb(16.539001%, 55.6427%, 77.949524%)" offset="0.546875"/><stop stop-opacity="1" stop-color="rgb(16.395569%, 55.412292%, 77.861023%)" offset="0.550781"/><stop stop-opacity="1" stop-color="rgb(16.253662%, 55.183411%, 77.774048%)" offset="0.554687"/><stop stop-opacity="1" stop-color="rgb(16.110229%, 54.953003%, 77.685547%)" offset="0.558594"/><stop stop-opacity="1" stop-color="rgb(15.968323%, 54.724121%, 77.598572%)" offset="0.5625"/><stop stop-opacity="1" stop-color="rgb(15.82489%, 54.493713%, 77.511597%)" offset="0.566406"/><stop stop-opacity="1" stop-color="rgb(15.682983%, 54.264832%, 77.424622%)" offset="0.570312"/><stop stop-opacity="1" stop-color="rgb(15.539551%, 54.034424%, 77.336121%)" offset="0.574219"/><stop stop-opacity="1" stop-color="rgb(15.397644%, 53.805542%, 77.249146%)" offset="0.578125"/><stop stop-opacity="1" stop-color="rgb(15.254211%, 53.575134%, 77.160645%)" offset="0.582031"/><stop stop-opacity="1" stop-color="rgb(15.112305%, 53.346252%, 77.073669%)" offset="0.585937"/><stop stop-opacity="1" stop-color="rgb(14.968872%, 53.115845%, 76.986694%)" offset="0.589844"/><stop stop-opacity="1" stop-color="rgb(14.826965%, 52.886963%, 76.899719%)" offset="0.59375"/><stop stop-opacity="1" stop-color="rgb(14.683533%, 52.656555%, 76.811218%)" offset="0.597656"/><stop stop-opacity="1" stop-color="rgb(14.541626%, 52.427673%, 76.724243%)" offset="0.601562"/><stop stop-opacity="1" stop-color="rgb(14.399719%, 52.197266%, 76.635742%)" offset="0.605469"/><stop stop-opacity="1" stop-color="rgb(14.257812%, 51.968384%, 76.548767%)" offset="0.609375"/><stop stop-opacity="1" stop-color="rgb(14.11438%, 51.737976%, 76.461792%)" offset="0.613281"/><stop stop-opacity="1" stop-color="rgb(13.972473%, 51.509094%, 76.374817%)" offset="0.617187"/><stop stop-opacity="1" stop-color="rgb(13.829041%, 51.278687%, 76.286316%)" offset="0.621094"/><stop stop-opacity="1" stop-color="rgb(13.687134%, 51.049805%, 76.199341%)" offset="0.625"/><stop stop-opacity="1" stop-color="rgb(13.543701%, 50.819397%, 76.11084%)" offset="0.628906"/><stop stop-opacity="1" stop-color="rgb(13.401794%, 50.590515%, 76.023865%)" offset="0.632812"/><stop stop-opacity="1" stop-color="rgb(13.258362%, 50.360107%, 75.93689%)" offset="0.636719"/><stop stop-opacity="1" stop-color="rgb(13.116455%, 50.131226%, 75.849915%)" offset="0.640625"/><stop stop-opacity="1" stop-color="rgb(12.973022%, 49.900818%, 75.761414%)" offset="0.644531"/><stop stop-opacity="1" stop-color="rgb(12.831116%, 49.67041%, 75.674438%)" offset="0.648437"/><stop stop-opacity="1" stop-color="rgb(12.687683%, 49.440002%, 75.585938%)" offset="0.652344"/><stop stop-opacity="1" stop-color="rgb(12.545776%, 49.211121%, 75.498962%)" offset="0.65625"/><stop stop-opacity="1" stop-color="rgb(12.402344%, 48.980713%, 75.410461%)" offset="0.660156"/><stop stop-opacity="1" stop-color="rgb(12.260437%, 48.751831%, 75.323486%)" offset="0.664062"/><stop stop-opacity="1" stop-color="rgb(12.117004%, 48.521423%, 75.236511%)" offset="0.667969"/><stop stop-opacity="1" stop-color="rgb(11.975098%, 48.292542%, 75.149536%)" offset="0.671875"/><stop stop-opacity="1" stop-color="rgb(11.833191%, 48.062134%, 75.061035%)" offset="0.675781"/><stop stop-opacity="1" stop-color="rgb(11.691284%, 47.833252%, 74.97406%)" offset="0.679687"/><stop stop-opacity="1" stop-color="rgb(11.547852%, 47.602844%, 74.885559%)" offset="0.683594"/><stop stop-opacity="1" stop-color="rgb(11.405945%, 47.373962%, 74.798584%)" offset="0.6875"/><stop stop-opacity="1" stop-color="rgb(11.262512%, 47.143555%, 74.711609%)" offset="0.691406"/><stop stop-opacity="1" stop-color="rgb(11.120605%, 46.914673%, 74.624634%)" offset="0.695312"/><stop stop-opacity="1" stop-color="rgb(10.977173%, 46.684265%, 74.536133%)" offset="0.699219"/><stop stop-opacity="1" stop-color="rgb(10.835266%, 46.455383%, 74.449158%)" offset="0.703125"/><stop stop-opacity="1" stop-color="rgb(10.691833%, 46.224976%, 74.360657%)" offset="0.707031"/><stop stop-opacity="1" stop-color="rgb(10.549927%, 45.996094%, 74.273682%)" offset="0.710937"/><stop stop-opacity="1" stop-color="rgb(10.406494%, 45.765686%, 74.186707%)" offset="0.714844"/><stop stop-opacity="1" stop-color="rgb(10.264587%, 45.536804%, 74.099731%)" offset="0.71875"/><stop stop-opacity="1" stop-color="rgb(10.121155%, 45.306396%, 74.01123%)" offset="0.722656"/><stop stop-opacity="1" stop-color="rgb(9.979248%, 45.077515%, 73.924255%)" offset="0.726562"/><stop stop-opacity="1" stop-color="rgb(9.835815%, 44.847107%, 73.835754%)" offset="0.730469"/><stop stop-opacity="1" stop-color="rgb(9.693909%, 44.618225%, 73.748779%)" offset="0.734375"/><stop stop-opacity="1" stop-color="rgb(9.552002%, 44.387817%, 73.661804%)" offset="0.738281"/><stop stop-opacity="1" stop-color="rgb(9.410095%, 44.158936%, 73.574829%)" offset="0.742187"/><stop stop-opacity="1" stop-color="rgb(9.266663%, 43.928528%, 73.486328%)" offset="0.746094"/><stop stop-opacity="1" stop-color="rgb(9.124756%, 43.699646%, 73.399353%)" offset="0.75"/><stop stop-opacity="1" stop-color="rgb(8.981323%, 43.469238%, 73.310852%)" offset="0.753906"/><stop stop-opacity="1" stop-color="rgb(8.839417%, 43.240356%, 73.223877%)" offset="0.757812"/><stop stop-opacity="1" stop-color="rgb(8.695984%, 43.009949%, 73.136902%)" offset="0.761719"/><stop stop-opacity="1" stop-color="rgb(8.554077%, 42.781067%, 73.049927%)" offset="0.765625"/><stop stop-opacity="1" stop-color="rgb(8.410645%, 42.550659%, 72.961426%)" offset="0.769531"/><stop stop-opacity="1" stop-color="rgb(8.268738%, 42.321777%, 72.874451%)" offset="0.773438"/><stop stop-opacity="1" stop-color="rgb(8.125305%, 42.09137%, 72.78595%)" offset="0.777344"/><stop stop-opacity="1" stop-color="rgb(7.983398%, 41.862488%, 72.698975%)" offset="0.78125"/><stop stop-opacity="1" stop-color="rgb(7.839966%, 41.63208%, 72.610474%)" offset="0.785156"/><stop stop-opacity="1" stop-color="rgb(7.698059%, 41.401672%, 72.523499%)" offset="0.789062"/><stop stop-opacity="1" stop-color="rgb(7.554626%, 41.171265%, 72.436523%)" offset="0.792969"/><stop stop-opacity="1" stop-color="rgb(7.41272%, 40.942383%, 72.349548%)" offset="0.796875"/><stop stop-opacity="1" stop-color="rgb(7.270813%, 40.711975%, 72.261047%)" offset="0.800781"/><stop stop-opacity="1" stop-color="rgb(7.128906%, 40.483093%, 72.174072%)" offset="0.804688"/><stop stop-opacity="1" stop-color="rgb(6.985474%, 40.252686%, 72.085571%)" offset="0.808594"/><stop stop-opacity="1" stop-color="rgb(6.843567%, 40.023804%, 71.998596%)" offset="0.8125"/><stop stop-opacity="1" stop-color="rgb(6.700134%, 39.793396%, 71.911621%)" offset="0.816406"/><stop stop-opacity="1" stop-color="rgb(6.558228%, 39.564514%, 71.824646%)" offset="0.820312"/><stop stop-opacity="1" stop-color="rgb(6.414795%, 39.334106%, 71.736145%)" offset="0.824219"/><stop stop-opacity="1" stop-color="rgb(6.272888%, 39.105225%, 71.64917%)" offset="0.828125"/><stop stop-opacity="1" stop-color="rgb(6.129456%, 38.874817%, 71.560669%)" offset="0.832031"/><stop stop-opacity="1" stop-color="rgb(5.987549%, 38.645935%, 71.473694%)" offset="0.835938"/><stop stop-opacity="1" stop-color="rgb(5.844116%, 38.415527%, 71.386719%)" offset="0.839844"/><stop stop-opacity="1" stop-color="rgb(5.702209%, 38.186646%, 71.299744%)" offset="0.84375"/><stop stop-opacity="1" stop-color="rgb(5.558777%, 37.956238%, 71.211243%)" offset="0.847656"/><stop stop-opacity="1" stop-color="rgb(5.41687%, 37.727356%, 71.124268%)" offset="0.851562"/><stop stop-opacity="1" stop-color="rgb(5.273438%, 37.496948%, 71.035767%)" offset="0.855469"/><stop stop-opacity="1" stop-color="rgb(5.131531%, 37.268066%, 70.948792%)" offset="0.859375"/><stop stop-opacity="1" stop-color="rgb(4.988098%, 37.037659%, 70.861816%)" offset="0.863281"/><stop stop-opacity="1" stop-color="rgb(4.846191%, 36.808777%, 70.774841%)" offset="0.867188"/><stop stop-opacity="1" stop-color="rgb(4.704285%, 36.578369%, 70.68634%)" offset="0.871094"/><stop stop-opacity="1" stop-color="rgb(4.562378%, 36.349487%, 70.599365%)" offset="0.875"/><stop stop-opacity="1" stop-color="rgb(4.418945%, 36.11908%, 70.510864%)" offset="0.878906"/><stop stop-opacity="1" stop-color="rgb(4.277039%, 35.890198%, 70.423889%)" offset="0.882812"/><stop stop-opacity="1" stop-color="rgb(4.133606%, 35.65979%, 70.336914%)" offset="0.886719"/><stop stop-opacity="1" stop-color="rgb(3.991699%, 35.430908%, 70.249939%)" offset="0.890625"/><stop stop-opacity="1" stop-color="rgb(3.848267%, 35.2005%, 70.161438%)" offset="0.894531"/><stop stop-opacity="1" stop-color="rgb(3.70636%, 34.971619%, 70.074463%)" offset="0.898438"/><stop stop-opacity="1" stop-color="rgb(3.562927%, 34.741211%, 69.985962%)" offset="0.902344"/><stop stop-opacity="1" stop-color="rgb(3.421021%, 34.512329%, 69.898987%)" offset="0.90625"/><stop stop-opacity="1" stop-color="rgb(3.277588%, 34.281921%, 69.810486%)" offset="0.910156"/><stop stop-opacity="1" stop-color="rgb(3.135681%, 34.05304%, 69.723511%)" offset="0.914062"/><stop stop-opacity="1" stop-color="rgb(2.992249%, 33.822632%, 69.636536%)" offset="0.917969"/><stop stop-opacity="1" stop-color="rgb(2.850342%, 33.59375%, 69.549561%)" offset="0.921875"/><stop stop-opacity="1" stop-color="rgb(2.706909%, 33.363342%, 69.46106%)" offset="0.925781"/><stop stop-opacity="1" stop-color="rgb(2.565002%, 33.132935%, 69.374084%)" offset="0.929688"/><stop stop-opacity="1" stop-color="rgb(2.423096%, 32.902527%, 69.285583%)" offset="0.933594"/><stop stop-opacity="1" stop-color="rgb(2.281189%, 32.673645%, 69.198608%)" offset="0.9375"/><stop stop-opacity="1" stop-color="rgb(2.137756%, 32.443237%, 69.111633%)" offset="0.941406"/><stop stop-opacity="1" stop-color="rgb(1.99585%, 32.214355%, 69.024658%)" offset="0.945312"/><stop stop-opacity="1" stop-color="rgb(1.852417%, 31.983948%, 68.936157%)" offset="0.949219"/><stop stop-opacity="1" stop-color="rgb(1.71051%, 31.755066%, 68.849182%)" offset="0.953125"/><stop stop-opacity="1" stop-color="rgb(1.567078%, 31.524658%, 68.760681%)" offset="0.957031"/><stop stop-opacity="1" stop-color="rgb(1.425171%, 31.295776%, 68.673706%)" offset="0.960938"/><stop stop-opacity="1" stop-color="rgb(1.281738%, 31.065369%, 68.586731%)" offset="0.964844"/><stop stop-opacity="1" stop-color="rgb(1.139832%, 30.836487%, 68.499756%)" offset="0.96875"/><stop stop-opacity="1" stop-color="rgb(0.996399%, 30.606079%, 68.411255%)" offset="0.972656"/><stop stop-opacity="1" stop-color="rgb(0.854492%, 30.377197%, 68.32428%)" offset="0.976562"/><stop stop-opacity="1" stop-color="rgb(0.71106%, 30.14679%, 68.235779%)" offset="0.980469"/><stop stop-opacity="1" stop-color="rgb(0.569153%, 29.917908%, 68.148804%)" offset="0.984375"/><stop stop-opacity="1" stop-color="rgb(0.42572%, 29.6875%, 68.061829%)" offset="0.988281"/><stop stop-opacity="1" stop-color="rgb(0.283813%, 29.458618%, 67.974854%)" offset="0.992188"/><stop stop-opacity="1" stop-color="rgb(0.141907%, 29.22821%, 67.886353%)" offset="0.996094"/><stop stop-opacity="1" stop-color="rgb(0%, 28.999329%, 67.799377%)" offset="1"/></linearGradient><clipPath id="7673c72300"><path d="M 140 109 L 246.699219 109 L 246.699219 213 L 140 213 Z M 140 109 " clip-rule="nonzero"/></clipPath></defs><rect x="-37.5" width="450" fill="#ffffff" y="-37.499999" height="449.999989" fill-opacity="1"/><rect x="-37.5" fill="url(#4c90feec76)" width="450" y="-37.499999" height="449.999989"/><path fill="#eb5d3b" d="M 170.421875 104.21875 C 172.40625 104.21875 174.015625 102.609375 174.015625 100.628906 L 174.015625 93.679688 C 174.015625 84.691406 181.351562 77.371094 190.382812 77.371094 C 199.414062 77.371094 206.746094 84.691406 206.746094 93.679688 L 206.746094 100.628906 C 206.746094 102.609375 208.359375 104.21875 210.34375 104.21875 C 212.328125 104.21875 213.9375 102.609375 213.9375 100.628906 L 213.9375 94.65625 C 213.9375 82.109375 204.503906 71.082031 191.933594 70.25 C 178.273438 69.359375 166.824219 80.210938 166.824219 93.679688 L 166.824219 100.628906 C 166.824219 102.609375 168.4375 104.21875 170.421875 104.21875 Z M 170.421875 104.21875 " fill-opacity="1" fill-rule="nonzero"/><g clip-path="url(#7673c72300)"><path fill="#ffb929" d="M 246.035156 197.542969 L 238.125 120.730469 C 237.492188 114.613281 232.34375 109.988281 226.191406 109.988281 L 154.574219 109.988281 C 148.417969 109.988281 143.269531 114.640625 142.636719 120.730469 L 140.652344 139.855469 C 139.328125 152.691406 151.550781 162.710938 163.890625 158.949219 L 170.59375 156.910156 C 178.214844 154.585938 186.726562 158.433594 189.71875 166.875 C 190.753906 169.804688 190.613281 173.019531 189.691406 176.007812 L 186.726562 185.65625 C 182.644531 198.980469 192.625 212.445312 206.574219 212.445312 L 232.574219 212.445312 C 240.601562 212.417969 246.871094 205.496094 246.035156 197.542969 Z M 246.035156 197.542969 " fill-opacity="1" fill-rule="nonzero"/></g><path fill="#eb5d3b" d="M 173.125 165.125 L 134.382812 176.925781 C 128.742188 178.648438 128.339844 186.460938 133.777344 188.757812 L 143.011719 192.632812 C 147.898438 194.699219 151.8125 198.578125 153.882812 203.488281 L 157.765625 212.703125 C 160.066406 218.132812 167.890625 217.730469 169.613281 212.101562 L 181.4375 173.421875 C 183.019531 168.339844 178.242188 163.574219 173.125 165.125 Z M 173.125 165.125 " fill-opacity="1" fill-rule="nonzero"/><g fill="#eb5d3b" fill-opacity="1"><g transform="translate(130.306204, 260.781326)"><g><path d="M 0.65625 -11.859375 C 0.65625 -15.285156 1.820312 -18.1875 4.15625 -20.5625 C 6.5 -22.9375 9.316406 -24.125 12.609375 -24.125 C 15.921875 -24.125 18.734375 -22.941406 21.046875 -20.578125 C 23.367188 -18.210938 24.53125 -15.304688 24.53125 -11.859375 C 24.53125 -8.390625 23.390625 -5.472656 21.109375 -3.109375 C 18.828125 -0.742188 15.992188 0.4375 12.609375 0.4375 C 9.140625 0.4375 6.28125 -0.734375 4.03125 -3.078125 C 1.78125 -5.429688 0.65625 -8.359375 0.65625 -11.859375 Z M 6.484375 -11.859375 C 6.484375 -10.617188 6.675781 -9.484375 7.0625 -8.453125 C 7.445312 -7.429688 8.117188 -6.566406 9.078125 -5.859375 C 10.035156 -5.148438 11.210938 -4.796875 12.609375 -4.796875 C 14.617188 -4.796875 16.132812 -5.484375 17.15625 -6.859375 C 18.1875 -8.242188 18.703125 -9.910156 18.703125 -11.859375 C 18.703125 -13.796875 18.175781 -15.457031 17.125 -16.84375 C 16.082031 -18.226562 14.578125 -18.921875 12.609375 -18.921875 C 10.648438 -18.921875 9.140625 -18.226562 8.078125 -16.84375 C 7.015625 -15.457031 6.484375 -13.796875 6.484375 -11.859375 Z M 6.484375 -11.859375 "/></g></g></g><g fill="#141515" fill-opacity="1"><g transform="translate(155.501515, 260.781326)"><g><path d="M 7.125 -14.703125 L 7.125 0 L 1.71875 0 L 1.71875 -23.6875 L 7.125 -23.6875 L 16.546875 -8.984375 L 16.59375 -8.984375 L 16.59375 -23.6875 L 22 -23.6875 L 22 0 L 16.59375 0 L 7.171875 -14.703125 Z M 7.125 -14.703125 "/></g></g></g><g fill="#141515" fill-opacity="1"><g transform="translate(179.226466, 260.781326)"><g><path d="M 7.125 -23.6875 L 7.125 -4.734375 L 15.28125 -4.734375 L 15.28125 0 L 1.71875 0 L 1.71875 -23.6875 Z M 7.125 -23.6875 "/></g></g></g><g fill="#141515" fill-opacity="1"><g transform="translate(195.454794, 260.781326)"><g><path d="M 7.125 -23.6875 L 7.125 0 L 1.71875 0 L 1.71875 -23.6875 Z M 7.125 -23.6875 "/></g></g></g><g fill="#141515" fill-opacity="1"><g transform="translate(204.301385, 260.781326)"><g><path d="M 7.125 -14.703125 L 7.125 0 L 1.71875 0 L 1.71875 -23.6875 L 7.125 -23.6875 L 16.546875 -8.984375 L 16.59375 -8.984375 L 16.59375 -23.6875 L 22 -23.6875 L 22 0 L 16.59375 0 L 7.171875 -14.703125 Z M 7.125 -14.703125 "/></g></g></g><g fill="#141515" fill-opacity="1"><g transform="translate(228.026336, 260.781326)"><g><path d="M 15.28125 -23.6875 L 15.28125 -18.953125 L 7.125 -18.953125 L 7.125 -14.25 L 14.9375 -14.25 L 14.9375 -9.5 L 7.125 -9.5 L 7.125 -4.734375 L 15.28125 -4.734375 L 15.28125 0 L 1.71875 0 L 1.71875 -23.6875 Z M 15.28125 -23.6875 "/></g></g></g><g fill="#eb5d3b" fill-opacity="1"><g transform="translate(138.075735, 289.281324)"><g><path d="M 10.453125 -24.125 C 11.734375 -24.125 12.984375 -23.9375 14.203125 -23.5625 C 15.429688 -23.1875 16.34375 -22.816406 16.9375 -22.453125 L 17.8125 -21.890625 L 15.625 -17.578125 C 15.445312 -17.691406 15.207031 -17.835938 14.90625 -18.015625 C 14.601562 -18.203125 14.03125 -18.445312 13.1875 -18.75 C 12.34375 -19.0625 11.554688 -19.21875 10.828125 -19.21875 C 9.929688 -19.21875 9.238281 -19.023438 8.75 -18.640625 C 8.257812 -18.253906 8.015625 -17.738281 8.015625 -17.09375 C 8.015625 -16.757812 8.128906 -16.453125 8.359375 -16.171875 C 8.585938 -15.898438 8.976562 -15.601562 9.53125 -15.28125 C 10.09375 -14.96875 10.582031 -14.71875 11 -14.53125 C 11.414062 -14.34375 12.066406 -14.054688 12.953125 -13.671875 C 14.484375 -13.015625 15.789062 -12.125 16.875 -11 C 17.957031 -9.882812 18.5 -8.617188 18.5 -7.203125 C 18.5 -5.847656 18.253906 -4.660156 17.765625 -3.640625 C 17.273438 -2.628906 16.601562 -1.835938 15.75 -1.265625 C 14.894531 -0.691406 13.953125 -0.265625 12.921875 0.015625 C 11.890625 0.296875 10.769531 0.4375 9.5625 0.4375 C 8.53125 0.4375 7.515625 0.328125 6.515625 0.109375 C 5.523438 -0.0976562 4.691406 -0.359375 4.015625 -0.671875 C 3.347656 -0.992188 2.742188 -1.304688 2.203125 -1.609375 C 1.671875 -1.910156 1.28125 -2.171875 1.03125 -2.390625 L 0.65625 -2.703125 L 3.359375 -7.234375 C 3.585938 -7.046875 3.898438 -6.800781 4.296875 -6.5 C 4.703125 -6.207031 5.414062 -5.8125 6.4375 -5.3125 C 7.46875 -4.8125 8.375 -4.5625 9.15625 -4.5625 C 11.4375 -4.5625 12.578125 -5.335938 12.578125 -6.890625 C 12.578125 -7.210938 12.492188 -7.515625 12.328125 -7.796875 C 12.171875 -8.078125 11.882812 -8.351562 11.46875 -8.625 C 11.0625 -8.90625 10.695312 -9.125 10.375 -9.28125 C 10.0625 -9.445312 9.546875 -9.695312 8.828125 -10.03125 C 8.109375 -10.375 7.578125 -10.628906 7.234375 -10.796875 C 5.796875 -11.503906 4.6875 -12.390625 3.90625 -13.453125 C 3.125 -14.515625 2.734375 -15.660156 2.734375 -16.890625 C 2.734375 -19.015625 3.515625 -20.75 5.078125 -22.09375 C 6.648438 -23.445312 8.441406 -24.125 10.453125 -24.125 Z M 10.453125 -24.125 "/></g></g></g><g fill="#eb5d3b" fill-opacity="1"><g transform="translate(157.377396, 289.281324)"><g><path d="M 0.234375 -18.953125 L 0.234375 -23.6875 L 16.890625 -23.6875 L 16.890625 -18.953125 L 11.25 -18.953125 L 11.25 0 L 5.859375 0 L 5.859375 -18.953125 Z M 0.234375 -18.953125 "/></g></g></g><g fill="#eb5d3b" fill-opacity="1"><g transform="translate(174.496131, 289.281324)"><g><path d="M 0.65625 -11.859375 C 0.65625 -15.285156 1.820312 -18.1875 4.15625 -20.5625 C 6.5 -22.9375 9.316406 -24.125 12.609375 -24.125 C 15.921875 -24.125 18.734375 -22.941406 21.046875 -20.578125 C 23.367188 -18.210938 24.53125 -15.304688 24.53125 -11.859375 C 24.53125 -8.390625 23.390625 -5.472656 21.109375 -3.109375 C 18.828125 -0.742188 15.992188 0.4375 12.609375 0.4375 C 9.140625 0.4375 6.28125 -0.734375 4.03125 -3.078125 C 1.78125 -5.429688 0.65625 -8.359375 0.65625 -11.859375 Z M 6.484375 -11.859375 C 6.484375 -10.617188 6.675781 -9.484375 7.0625 -8.453125 C 7.445312 -7.429688 8.117188 -6.566406 9.078125 -5.859375 C 10.035156 -5.148438 11.210938 -4.796875 12.609375 -4.796875 C 14.617188 -4.796875 16.132812 -5.484375 17.15625 -6.859375 C 18.1875 -8.242188 18.703125 -9.910156 18.703125 -11.859375 C 18.703125 -13.796875 18.175781 -15.457031 17.125 -16.84375 C 16.082031 -18.226562 14.578125 -18.921875 12.609375 -18.921875 C 10.648438 -18.921875 9.140625 -18.226562 8.078125 -16.84375 C 7.015625 -15.457031 6.484375 -13.796875 6.484375 -11.859375 Z M 6.484375 -11.859375 "/></g></g></g><g fill="#eb5d3b" fill-opacity="1"><g transform="translate(199.685938, 289.281324)"><g><path d="M 1.71875 -23.6875 L 10.1875 -23.6875 C 12.46875 -23.6875 14.328125 -23.078125 15.765625 -21.859375 C 17.203125 -20.648438 17.921875 -18.914062 17.921875 -16.65625 C 17.921875 -14.914062 17.484375 -13.457031 16.609375 -12.28125 C 15.742188 -11.101562 14.5625 -10.273438 13.0625 -9.796875 L 21.21875 0 L 14.359375 0 L 7.125 -9.359375 L 7.125 0 L 1.71875 0 Z M 7.125 -13.1875 L 7.75 -13.1875 C 8.25 -13.1875 8.671875 -13.191406 9.015625 -13.203125 C 9.359375 -13.222656 9.75 -13.289062 10.1875 -13.40625 C 10.632812 -13.519531 10.988281 -13.679688 11.25 -13.890625 C 11.519531 -14.109375 11.75 -14.414062 11.9375 -14.8125 C 12.132812 -15.21875 12.234375 -15.707031 12.234375 -16.28125 C 12.234375 -16.851562 12.132812 -17.335938 11.9375 -17.734375 C 11.75 -18.140625 11.519531 -18.445312 11.25 -18.65625 C 10.988281 -18.875 10.632812 -19.039062 10.1875 -19.15625 C 9.75 -19.269531 9.359375 -19.335938 9.015625 -19.359375 C 8.671875 -19.378906 8.25 -19.390625 7.75 -19.390625 L 7.125 -19.390625 Z M 7.125 -13.1875 "/></g></g></g><g fill="#eb5d3b" fill-opacity="1"><g transform="translate(220.251393, 289.281324)"><g><path d="M 15.28125 -23.6875 L 15.28125 -18.953125 L 7.125 -18.953125 L 7.125 -14.25 L 14.9375 -14.25 L 14.9375 -9.5 L 7.125 -9.5 L 7.125 -4.734375 L 15.28125 -4.734375 L 15.28125 0 L 1.71875 0 L 1.71875 -23.6875 Z M 15.28125 -23.6875 "/></g></g></g><g fill="#141515" fill-opacity="1"><g transform="translate(152.278859, 44.249997)"><g><path d="M 14.328125 -4.875 C 15.148438 -4.875 15.945312 -5 16.71875 -5.25 C 17.5 -5.5 18.070312 -5.738281 18.4375 -5.96875 L 18.984375 -6.34375 L 21.28125 -1.75 C 21.207031 -1.695312 21.101562 -1.617188 20.96875 -1.515625 C 20.832031 -1.421875 20.519531 -1.242188 20.03125 -0.984375 C 19.539062 -0.734375 19.019531 -0.507812 18.46875 -0.3125 C 17.914062 -0.125 17.1875 0.046875 16.28125 0.203125 C 15.382812 0.359375 14.457031 0.4375 13.5 0.4375 C 11.289062 0.4375 9.203125 -0.101562 7.234375 -1.1875 C 5.265625 -2.269531 3.675781 -3.757812 2.46875 -5.65625 C 1.257812 -7.550781 0.65625 -9.597656 0.65625 -11.796875 C 0.65625 -13.460938 1.007812 -15.0625 1.71875 -16.59375 C 2.425781 -18.125 3.367188 -19.4375 4.546875 -20.53125 C 5.722656 -21.625 7.097656 -22.492188 8.671875 -23.140625 C 10.242188 -23.796875 11.851562 -24.125 13.5 -24.125 C 15.03125 -24.125 16.441406 -23.941406 17.734375 -23.578125 C 19.023438 -23.210938 19.9375 -22.847656 20.46875 -22.484375 L 21.28125 -21.9375 L 18.984375 -17.34375 C 18.847656 -17.457031 18.644531 -17.59375 18.375 -17.75 C 18.113281 -17.914062 17.578125 -18.132812 16.765625 -18.40625 C 15.960938 -18.675781 15.148438 -18.8125 14.328125 -18.8125 C 13.023438 -18.8125 11.859375 -18.597656 10.828125 -18.171875 C 9.796875 -17.753906 8.976562 -17.203125 8.375 -16.515625 C 7.769531 -15.828125 7.304688 -15.082031 6.984375 -14.28125 C 6.671875 -13.488281 6.515625 -12.679688 6.515625 -11.859375 C 6.515625 -10.054688 7.1875 -8.441406 8.53125 -7.015625 C 9.882812 -5.585938 11.816406 -4.875 14.328125 -4.875 Z M 14.328125 -4.875 "/></g></g></g><g fill="#eb5d3b" fill-opacity="1"><g transform="translate(173.91167, 44.249997)"><g><path d="M 21.3125 0 L 20.1875 -14.046875 L 20.046875 -14.046875 L 15.1875 -0.140625 L 11.96875 -0.140625 L 7.125 -14.046875 L 6.984375 -14.046875 L 5.859375 0 L 0.453125 0 L 2.578125 -23.6875 L 8.328125 -23.6875 L 13.578125 -10.015625 L 18.84375 -23.6875 L 24.578125 -23.6875 L 26.703125 0 Z M 21.3125 0 "/></g></g></g><g fill="#141515" fill-opacity="1"><g transform="translate(201.087449, 44.249997)"><g><path d="M 14.328125 -4.875 C 15.148438 -4.875 15.945312 -5 16.71875 -5.25 C 17.5 -5.5 18.070312 -5.738281 18.4375 -5.96875 L 18.984375 -6.34375 L 21.28125 -1.75 C 21.207031 -1.695312 21.101562 -1.617188 20.96875 -1.515625 C 20.832031 -1.421875 20.519531 -1.242188 20.03125 -0.984375 C 19.539062 -0.734375 19.019531 -0.507812 18.46875 -0.3125 C 17.914062 -0.125 17.1875 0.046875 16.28125 0.203125 C 15.382812 0.359375 14.457031 0.4375 13.5 0.4375 C 11.289062 0.4375 9.203125 -0.101562 7.234375 -1.1875 C 5.265625 -2.269531 3.675781 -3.757812 2.46875 -5.65625 C 1.257812 -7.550781 0.65625 -9.597656 0.65625 -11.796875 C 0.65625 -13.460938 1.007812 -15.0625 1.71875 -16.59375 C 2.425781 -18.125 3.367188 -19.4375 4.546875 -20.53125 C 5.722656 -21.625 7.097656 -22.492188 8.671875 -23.140625 C 10.242188 -23.796875 11.851562 -24.125 13.5 -24.125 C 15.03125 -24.125 16.441406 -23.941406 17.734375 -23.578125 C 19.023438 -23.210938 19.9375 -22.847656 20.46875 -22.484375 L 21.28125 -21.9375 L 18.984375 -17.34375 C 18.847656 -17.457031 18.644531 -17.59375 18.375 -17.75 C 18.113281 -17.914062 17.578125 -18.132812 16.765625 -18.40625 C 15.960938 -18.675781 15.148438 -18.8125 14.328125 -18.8125 C 13.023438 -18.8125 11.859375 -18.597656 10.828125 -18.171875 C 9.796875 -17.753906 8.976562 -17.203125 8.375 -16.515625 C 7.769531 -15.828125 7.304688 -15.082031 6.984375 -14.28125 C 6.671875 -13.488281 6.515625 -12.679688 6.515625 -11.859375 C 6.515625 -10.054688 7.1875 -8.441406 8.53125 -7.015625 C 9.882812 -5.585938 11.816406 -4.875 14.328125 -4.875 Z M 14.328125 -4.875 "/></g></g></g></svg>